<svg width="1200" height="371" viewBox="0 0 1200 371" fill="none" xmlns="http://www.w3.org/2000/svg">
    <path d="M169.63 119.663C167.744 117.727 165.494 116.209 163.017 115.202C160.541 114.196 157.891 113.722 155.23 113.81C152.54 113.717 149.862 114.206 147.367 115.245C144.872 116.283 142.616 117.849 140.743 119.84C138.872 121.823 137.409 124.174 136.441 126.754C135.474 129.334 135.022 132.089 135.114 134.853V135.313C133.14 133.438 130.977 131.564 128.574 129.689C122.18 124.831 115.116 120.987 107.617 118.284C99.1065 115.227 90.146 113.714 81.1335 113.81C66.6346 113.666 52.4134 117.909 40.232 126.011C27.7387 134.397 17.6192 146.037 10.899 159.751C3.63301 174.109 0 190.69 0 209.493C0 228.108 3.63301 244.571 10.899 258.882C17.664 272.665 27.9097 284.314 40.5581 292.604C53.0926 300.758 67.6492 305.001 82.4722 304.823C90.54 304.902 98.5526 303.445 106.107 300.526C112.835 297.935 119.188 294.407 124.987 290.04C128.623 287.28 131.996 284.172 135.062 280.756C135.026 283.457 135.509 286.138 136.484 288.645C137.459 291.152 138.907 293.435 140.743 295.362C144.593 299.245 149.765 301.419 155.152 301.419C160.54 301.419 165.712 299.245 169.562 295.362C171.443 293.39 172.918 291.047 173.9 288.473C174.882 285.9 175.351 283.149 175.277 280.385V134.853C175.396 132.057 174.956 129.267 173.985 126.654C173.013 124.041 171.531 121.661 169.63 119.663ZM130.582 238.741C126.742 247.116 120.761 254.256 113.281 259.395C105.63 264.521 96.66 267.158 87.5356 266.963C78.4989 267.142 69.6206 264.504 62.0644 259.395C54.5924 254.257 48.6225 247.116 44.7976 238.741C40.5689 229.614 38.4426 219.605 38.5843 209.493C38.4194 199.265 40.5455 189.136 44.7976 179.892C48.6225 171.528 54.5782 164.39 62.0301 159.238C69.5996 154.13 78.4884 151.492 87.5356 151.669C96.6589 151.484 105.627 154.12 113.281 159.238C120.74 164.391 126.706 171.528 130.548 179.892C134.795 189.137 136.915 199.266 136.744 209.493C136.902 219.601 134.793 229.61 130.582 238.741Z" fill="black" fill-opacity="0.03"/>
    <path d="M344.993 123.376C341.132 119.509 335.96 117.345 330.575 117.345C325.191 117.345 320.018 119.509 316.158 123.376C314.262 125.347 312.773 127.693 311.782 130.274C310.79 132.854 310.317 135.615 310.391 138.389V226.451C310.607 234.095 309.116 241.687 306.031 248.643C303.383 254.45 299.046 259.265 293.622 262.418C287.529 265.695 280.718 267.296 273.849 267.069C262.406 267.069 253.521 264.027 247.193 257.944C240.866 251.861 237.679 241.363 237.633 226.451V138.389C237.709 135.629 237.243 132.881 236.264 130.311C235.285 127.74 233.812 125.4 231.935 123.429C228.074 119.562 222.902 117.398 217.517 117.398C212.133 117.398 206.96 119.562 203.1 123.429C201.222 125.4 199.749 127.741 198.767 130.311C197.785 132.881 197.315 135.628 197.384 138.389V238.9C197.171 250.753 199.701 262.488 204.764 273.134C209.366 282.771 216.503 290.883 225.361 296.547C234.72 302.316 245.472 305.24 256.376 304.981C265.458 305.077 274.503 303.76 283.203 301.073C290.615 298.767 297.506 294.962 303.474 289.88C306.113 287.596 308.528 285.049 310.682 282.276V285.919C310.682 297.625 308.966 306.862 305.533 313.628C302.253 320.217 296.765 325.357 290.086 328.093C283.22 330.958 274.673 332.39 264.443 332.39C257.58 332.549 250.751 331.348 244.327 328.854C238.509 326.431 233.823 324.663 230.253 323.549C227.984 322.629 225.548 322.23 223.114 322.38C220.68 322.529 218.308 323.224 216.161 324.415C211.699 326.773 208.46 331.3 206.447 337.996C205.658 340.344 205.384 342.844 205.646 345.314C205.907 347.785 206.696 350.165 207.957 352.284C210.514 356.757 215.166 360.489 221.86 363.477C228.208 366.086 234.861 367.822 241.65 368.641C249.2 369.76 256.815 370.351 264.443 370.409C279.355 370.632 294.163 367.826 308.022 362.151C320.868 356.74 331.724 347.282 339.037 335.131C346.749 322.623 350.606 305.812 350.606 284.699V138.389C350.695 135.626 350.245 132.874 349.281 130.295C348.316 127.715 346.858 125.362 344.993 123.376Z" fill="black" fill-opacity="0.03"/>
    <path d="M523.051 159.237C515.447 154.091 506.503 151.451 497.408 151.669C488.285 151.483 479.317 154.12 471.662 159.237C464.24 164.358 458.279 171.427 454.395 179.714C450.117 188.882 447.972 198.951 448.131 209.121C447.995 219.293 450.114 229.363 454.327 238.564C458.135 246.992 464.105 254.189 471.594 259.377C479.245 264.503 488.215 267.14 497.339 266.945C506.436 267.175 515.383 264.534 522.982 259.377C530.424 254.165 536.356 246.972 540.146 238.564C544.354 229.361 546.478 219.294 546.359 209.121C546.532 198.951 544.411 188.879 540.163 179.697C536.307 171.443 530.404 164.386 523.051 159.237Z" fill="black" fill-opacity="0.03"/>
    <path d="M824.018 0.460938H411.28C401.047 0.460938 391.232 4.64904 383.996 12.1039C376.761 19.5588 372.695 29.6698 372.695 40.2126V303.072C372.693 308.294 373.689 313.465 375.628 318.29C377.566 323.115 380.407 327.499 383.99 331.192C387.574 334.885 391.828 337.815 396.51 339.814C401.193 341.812 406.211 342.841 411.28 342.841H714.788C745.047 342.836 774.066 330.449 795.461 308.403C816.856 286.357 828.876 256.459 828.876 225.284V5.46526C828.876 4.13803 828.364 2.86516 827.453 1.92667C826.542 0.988177 825.307 0.460938 824.018 0.460938ZM574.01 258.882C567.323 272.565 557.26 284.194 544.831 292.603C532.61 300.762 518.32 305.013 503.758 304.822C495.185 304.891 486.668 303.376 478.613 300.349C471.245 297.625 464.305 293.8 458.017 288.996C455.12 286.775 452.378 284.346 449.813 281.728V283.833C449.885 286.595 449.419 289.345 448.44 291.918C447.461 294.491 445.99 296.835 444.114 298.81C442.247 300.788 440.001 302.343 437.519 303.378C435.037 304.413 432.373 304.905 429.697 304.822C427.034 304.911 424.383 304.439 421.904 303.436C419.425 302.432 417.171 300.919 415.279 298.987C413.373 296.997 411.884 294.626 410.904 292.019C409.923 289.412 409.473 286.626 409.581 283.833V67.6567C409.522 64.8936 410.003 62.1465 410.997 59.5793C411.991 57.0122 413.476 54.6775 415.365 52.7145C419.232 48.8597 424.402 46.7047 429.782 46.7047C435.163 46.7047 440.333 48.8597 444.2 52.7145C446.054 54.6944 447.506 57.0361 448.47 59.6021C449.434 62.168 449.89 64.9065 449.813 67.6567V139.875C453.279 135.608 457.213 131.769 461.535 128.434C467.204 124.017 473.473 120.484 480.141 117.947C487.27 115.172 494.833 113.77 502.454 113.81C517.328 113.589 531.944 117.828 544.523 126.011C557.064 134.326 567.239 145.919 574.01 159.609C581.276 173.826 584.909 190.33 584.909 209.122C584.909 227.913 581.276 244.5 574.01 258.882ZM781.092 258.882C774.405 272.565 764.342 284.194 751.913 292.603C739.692 300.762 725.401 305.013 710.84 304.822C702.266 304.891 693.75 303.376 685.695 300.349C678.327 297.625 671.387 293.8 665.099 288.996C662.202 286.775 659.46 284.346 656.894 281.728V283.833C656.967 286.595 656.5 289.345 655.521 291.918C654.542 294.491 653.071 296.835 651.196 298.81C649.329 300.788 647.083 302.343 644.601 303.378C642.119 304.413 639.455 304.905 636.778 304.822C634.116 304.911 631.465 304.439 628.986 303.436C626.507 302.432 624.252 300.919 622.361 298.987C620.455 296.997 618.965 294.626 617.985 292.019C617.005 289.412 616.555 286.626 616.662 283.833V67.6567C616.587 64.8939 617.053 62.1439 618.032 59.5706C619.011 56.9974 620.483 54.6536 622.361 52.6791C626.227 48.8244 631.397 46.6693 636.778 46.6693C642.159 46.6693 647.329 48.8244 651.196 52.6791C653.07 54.656 654.54 57.0002 655.519 59.5729C656.497 62.1455 656.965 64.8944 656.894 67.6567V139.875C660.361 135.608 664.295 131.769 668.617 128.434C674.286 124.017 680.555 120.484 687.223 117.947C694.352 115.172 701.915 113.77 709.536 113.81C724.41 113.592 739.025 117.831 751.604 126.011C764.145 134.326 774.32 145.919 781.092 159.609C788.369 173.826 792.002 190.33 791.991 209.122C791.979 227.913 788.346 244.5 781.092 258.882Z" fill="black" fill-opacity="0.03"/>
    <path d="M730.15 159.237C722.539 154.093 713.59 151.453 704.49 151.669C695.366 151.483 686.399 154.119 678.744 159.237C671.322 164.357 665.361 171.426 661.477 179.714C657.199 188.881 655.053 198.95 655.212 209.121C655.077 219.293 657.196 229.363 661.409 238.563C665.217 246.992 671.187 254.189 678.675 259.376C686.326 264.502 695.297 267.139 704.421 266.945C713.522 267.169 722.474 264.529 730.081 259.376C737.517 254.158 743.448 246.967 747.245 238.563C751.464 229.363 753.601 219.296 753.493 209.121C753.665 198.951 751.544 188.879 747.296 179.696C743.427 171.442 737.512 164.384 730.15 159.237Z" fill="black" fill-opacity="0.03"/>
    <path d="M1014.81 169.918C1010.37 159.138 1004.06 149.282 996.189 140.829C988.491 132.535 979.335 125.821 969.207 121.042C959.065 116.225 948.022 113.756 936.854 113.809C922.126 113.807 907.665 117.847 894.957 125.516C881.543 133.545 870.479 145.152 862.929 159.114C854.782 173.684 850.703 191.291 850.691 211.933C850.421 228.497 854.293 244.853 861.933 259.43C869.395 273.413 880.555 284.929 894.116 292.639C908.076 300.785 924.559 304.858 943.565 304.858C954.634 304.874 965.627 302.955 976.073 299.181C986.577 295.397 994.736 290.982 1000.55 285.937C1006.81 280.891 1009.94 275.268 1009.94 269.067C1009.92 266.773 1009.46 264.506 1008.58 262.397C1007.71 260.287 1006.43 258.377 1004.84 256.778C1003.24 255.178 1001.35 253.92 999.283 253.076C997.212 252.232 995 251.819 992.773 251.861C988.792 251.965 984.89 253.024 981.377 254.956C978.928 256.335 976.187 257.997 973.155 259.943C969.449 262.2 965.441 263.886 961.261 264.947C954.781 266.494 948.137 267.183 941.488 266.998C932.632 267.025 923.917 264.718 916.171 260.296C909.541 256.496 903.799 251.244 899.351 244.91C894.903 238.577 891.856 231.316 890.425 223.639H1001.06C1006.21 223.723 1011.21 221.889 1015.16 218.476C1017.1 216.853 1018.68 214.81 1019.78 212.492C1020.88 210.173 1021.48 207.635 1021.52 205.054C1021.64 192.993 1019.35 181.036 1014.81 169.918ZM978.768 189.193H890.923C891.421 186.509 892.092 183.862 892.931 181.27C894.949 174.708 898.389 168.704 902.989 163.711C907.203 159.388 912.384 156.2 918.076 154.428C924.167 152.548 930.496 151.619 936.854 151.669C943.654 151.64 950.368 153.232 956.472 156.32C962.459 159.276 967.735 163.564 971.919 168.875C975.972 173.951 978.374 180.211 978.785 186.77L978.768 189.193Z" fill="black" fill-opacity="0.03"/>
    <path d="M1195.12 156.319C1192.28 145.142 1186.05 135.192 1177.34 127.92C1168.73 120.847 1156.14 117.31 1139.58 117.31C1132.39 117.216 1125.25 118.412 1118.46 120.847C1112.24 123.114 1106.36 126.301 1101.03 130.307C1096.13 133.983 1091.63 138.199 1087.62 142.88C1086.25 144.471 1085.05 146.027 1083.93 147.548V141.695C1084 138.933 1083.54 136.183 1082.56 133.61C1081.58 131.037 1080.11 128.693 1078.23 126.718C1074.37 122.85 1069.2 120.687 1063.81 120.687C1058.43 120.687 1053.26 122.85 1049.4 126.718C1047.52 128.691 1046.04 131.034 1045.07 133.608C1044.09 136.181 1043.62 138.932 1043.7 141.695V283.832C1043.62 286.595 1044.09 289.346 1045.07 291.919C1046.04 294.493 1047.52 296.836 1049.4 298.809C1053.26 302.664 1058.43 304.819 1063.81 304.819C1069.2 304.819 1074.37 302.664 1078.23 298.809C1080.11 296.834 1081.58 294.49 1082.56 291.917C1083.54 289.344 1084 286.594 1083.93 283.832V195.717C1083.83 188.576 1085.5 181.526 1088.79 175.24C1092.08 169.12 1096.95 164.058 1102.86 160.616C1109.8 156.753 1117.62 154.856 1125.5 155.117C1134.66 155.117 1141.69 156.95 1146.61 160.616C1151.5 164.2 1155.12 169.337 1156.91 175.24C1158.89 181.871 1159.85 188.78 1159.76 195.717V283.832C1159.69 286.594 1160.15 289.344 1161.13 291.917C1162.11 294.49 1163.58 296.834 1165.46 298.809C1169.33 302.664 1174.5 304.819 1179.88 304.819C1185.26 304.819 1190.43 302.664 1194.29 298.809C1196.17 296.834 1197.64 294.49 1198.62 291.917C1199.6 289.344 1200.07 286.594 1199.99 283.832V195.717C1200.13 182.416 1198.49 169.16 1195.12 156.319Z" fill="black" fill-opacity="0.03"/>
</svg>
