<svg width="27" height="28" viewBox="0 0 27 28" fill="none" xmlns="http://www.w3.org/2000/svg">
    <path d="M27 14.0618C27 6.60513 20.9566 0.561768 13.5 0.561768C6.04336 0.561768 0 6.60513 0 14.0618C0 21.5184 6.04336 27.5618 13.5 27.5618C13.5791 27.5618 13.6582 27.5618 13.7373 27.5565V17.0518H10.8369V13.6715H13.7373V11.1825C13.7373 8.2979 15.4986 6.72642 18.0721 6.72642C19.3061 6.72642 20.366 6.81606 20.6719 6.85825V9.87466H18.9C17.5025 9.87466 17.2283 10.5391 17.2283 11.5147V13.6663H20.577L20.1393 17.0465H17.2283V27.0397C22.8709 25.4208 27 20.2264 27 14.0618Z" fill="white"/>
</svg>
