<svg width="182" height="57" viewBox="0 0 182 57" fill="none" xmlns="http://www.w3.org/2000/svg">
    <path d="M25.6529 18.3529C25.3677 18.0601 25.0274 17.8305 24.6528 17.6783C24.2783 17.5261 23.8775 17.4544 23.4751 17.4677C23.0684 17.4538 22.6634 17.5277 22.2861 17.6847C21.9087 17.8418 21.5675 18.0785 21.2844 18.3796C21.0014 18.6795 20.7801 19.0351 20.6338 19.4253C20.4875 19.8154 20.4192 20.232 20.433 20.65V20.7195C20.1345 20.4361 19.8075 20.1526 19.4441 19.8692C18.4771 19.1345 17.4088 18.5531 16.2748 18.1443C14.9877 17.6821 13.6326 17.4532 12.2697 17.4677C10.077 17.446 7.92639 18.0876 6.08422 19.3129C4.19487 20.5811 2.66452 22.3414 1.64824 24.4153C0.549414 26.5867 0 29.0942 0 31.9377C0 34.7528 0.549414 37.2424 1.64824 39.4067C2.67129 41.4911 4.22074 43.2527 6.13354 44.5064C8.02911 45.7395 10.2305 46.3813 12.4721 46.3543C13.6922 46.3662 14.9039 46.1459 16.0464 45.7045C17.0639 45.3127 18.0246 44.7791 18.9016 44.1187C19.4514 43.7013 19.9615 43.2312 20.4252 42.7147C20.4197 43.1231 20.4928 43.5286 20.6402 43.9077C20.7877 44.2869 21.0066 44.6321 21.2844 44.9236C21.8665 45.5108 22.6488 45.8396 23.4634 45.8396C24.2781 45.8396 25.0604 45.5108 25.6425 44.9236C25.927 44.6253 26.1502 44.271 26.2987 43.8818C26.4472 43.4926 26.518 43.0766 26.5069 42.6586V20.65C26.5248 20.2273 26.4583 19.8052 26.3114 19.4101C26.1645 19.0149 25.9404 18.6551 25.6529 18.3529ZM19.7478 36.3609C19.167 37.6274 18.2625 38.7072 17.1313 39.4843C15.9743 40.2595 14.6177 40.6583 13.2379 40.6289C11.8713 40.6559 10.5286 40.257 9.3859 39.4843C8.25592 38.7072 7.3531 37.6273 6.77467 36.3609C6.13517 34.9807 5.81361 33.467 5.83504 31.9377C5.81009 30.391 6.13163 28.8591 6.77467 27.4612C7.35311 26.1963 8.25377 25.1168 9.38071 24.3377C10.5254 23.5652 11.8697 23.1663 13.2379 23.1932C14.6176 23.1651 15.9738 23.5638 17.1313 24.3377C18.2593 25.1171 19.1616 26.1964 19.7426 27.4612C20.3848 28.8593 20.7055 30.3912 20.6796 31.9377C20.7035 33.4663 20.3846 34.98 19.7478 36.3609Z" fill="white"/>
    <path d="M52.1727 18.9144C51.5888 18.3296 50.8066 18.0024 49.9923 18.0024C49.178 18.0024 48.3958 18.3296 47.812 18.9144C47.5252 19.2125 47.3001 19.5674 47.1502 19.9576C47.0003 20.3478 46.9287 20.7653 46.9398 21.1848V34.5023C46.9726 35.6582 46.747 36.8065 46.2805 37.8584C45.88 38.7366 45.2241 39.4647 44.4039 39.9416C43.4824 40.4371 42.4525 40.6793 41.4137 40.6449C39.6832 40.6449 38.3396 40.1849 37.3826 39.265C36.4257 38.3451 35.9438 36.7575 35.9368 34.5023V21.1848C35.9483 20.7674 35.8778 20.3519 35.7298 19.9632C35.5817 19.5744 35.359 19.2205 35.0751 18.9225C34.4912 18.3376 33.709 18.0105 32.8947 18.0105C32.0804 18.0105 31.2982 18.3376 30.7144 18.9225C30.4305 19.2206 30.2076 19.5745 30.0591 19.9632C29.9107 20.3518 29.8395 20.7673 29.85 21.1848V36.3849C29.8178 38.1775 30.2004 39.9522 30.9662 41.5621C31.6621 43.0196 32.7413 44.2463 34.0809 45.1027C35.4963 45.9753 37.1224 46.4175 38.7713 46.3783C40.1448 46.3929 41.5126 46.1936 42.8283 45.7873C43.9492 45.4386 44.9913 44.8631 45.8938 44.0946C46.293 43.7491 46.6582 43.364 46.984 42.9447V43.4956C46.984 45.2659 46.7244 46.6627 46.2053 47.686C45.7092 48.6824 44.8792 49.4597 43.8692 49.8735C42.8309 50.3067 41.5383 50.5233 39.9913 50.5233C38.9533 50.5473 37.9206 50.3658 36.9491 49.9885C36.0692 49.6221 35.3606 49.3547 34.8207 49.1862C34.4776 49.0472 34.1092 48.9868 33.7412 49.0095C33.3731 49.0321 33.0143 49.1371 32.6897 49.3173C32.0148 49.6738 31.5251 50.3584 31.2205 51.371C31.1013 51.7262 31.0599 52.1042 31.0994 52.4778C31.1389 52.8514 31.2583 53.2114 31.4489 53.5318C31.8357 54.2083 32.5391 54.7726 33.5514 55.2245C34.5114 55.6191 35.5177 55.8816 36.5442 56.0054C37.686 56.1747 38.8377 56.264 39.9913 56.2728C42.2464 56.3066 44.4858 55.8823 46.5816 55.024C48.5243 54.2057 50.166 52.7754 51.272 50.9378C52.4383 49.0463 53.0215 46.504 53.0215 43.311V21.1848C53.035 20.7671 52.9669 20.3508 52.8211 19.9608C52.6753 19.5707 52.4548 19.2149 52.1727 18.9144Z" fill="white"/>
    <path d="M79.1001 24.3379C77.9502 23.5595 76.5976 23.1603 75.2222 23.1933C73.8425 23.1652 72.4863 23.5639 71.3287 24.3379C70.2062 25.1122 69.3048 26.1812 68.7175 27.4346C68.0704 28.8209 67.746 30.3436 67.77 31.8817C67.7495 33.42 68.07 34.9428 68.7071 36.3342C69.283 37.6089 70.1859 38.6972 71.3183 39.4818C72.4754 40.2569 73.8319 40.6557 75.2118 40.6263C76.5875 40.661 77.9406 40.2617 79.0897 39.4818C80.2152 38.6936 81.1122 37.6059 81.6854 36.3342C82.3217 34.9425 82.643 33.42 82.625 31.8817C82.6511 30.3437 82.3303 28.8205 81.688 27.4319C81.1049 26.1837 80.2121 25.1164 79.1001 24.3379Z" fill="white"/>
    <path d="M124.615 0.326172H62.1971C60.6496 0.326172 59.1654 0.959532 58.0711 2.08692C56.9768 3.21431 56.3621 4.74337 56.3621 6.33774V46.0895C56.3617 46.8792 56.5124 47.6612 56.8055 48.3909C57.0986 49.1205 57.5283 49.7836 58.0702 50.3421C58.6121 50.9006 59.2554 51.3436 59.9635 51.6459C60.6716 51.9482 61.4306 52.1038 62.1971 52.1038H108.096C112.672 52.103 117.061 50.2297 120.296 46.8958C123.532 43.5618 125.349 39.0403 125.349 34.3258V1.08297C125.349 0.882252 125.272 0.689758 125.134 0.547832C124.997 0.405905 124.81 0.326172 124.615 0.326172ZM86.8065 39.4067C85.7953 41.476 84.2735 43.2347 82.3939 44.5064C80.5457 45.7402 78.3846 46.3831 76.1825 46.3543C74.8859 46.3646 73.598 46.1355 72.3799 45.6777C71.2655 45.2658 70.2161 44.6873 69.2651 43.9609C68.827 43.625 68.4124 43.2577 68.0244 42.8618V43.18C68.0354 43.5978 67.9648 44.0136 67.8167 44.4027C67.6687 44.7918 67.4462 45.1463 67.1626 45.445C66.8802 45.7441 66.5406 45.9793 66.1652 46.1358C65.7899 46.2924 65.387 46.3667 64.9822 46.3543C64.5797 46.3676 64.1787 46.2963 63.8038 46.1446C63.4289 45.9928 63.088 45.7639 62.8019 45.4718C62.5137 45.1709 62.2885 44.8122 62.1402 44.418C61.992 44.0238 61.9239 43.6024 61.9401 43.18V10.4881C61.9312 10.0702 62.0041 9.65478 62.1544 9.26655C62.3046 8.87832 62.5293 8.52525 62.8149 8.22839C63.3997 7.64544 64.1815 7.31954 64.9952 7.31954C65.8089 7.31954 66.5908 7.64544 67.1756 8.22839C67.456 8.52781 67.6756 8.88194 67.8213 9.26999C67.9671 9.65803 68.0361 10.0722 68.0244 10.4881V21.4095C68.5486 20.7643 69.1435 20.1837 69.7972 19.6793C70.6545 19.0113 71.6026 18.477 72.6109 18.0935C73.689 17.6738 74.8327 17.4617 75.9852 17.4677C78.2347 17.4343 80.445 18.0754 82.3472 19.3129C84.2437 20.5703 85.7825 22.3236 86.8065 24.3938C87.9054 26.5439 88.4548 29.0398 88.4548 31.8816C88.4548 34.7233 87.9054 37.2317 86.8065 39.4067ZM118.123 39.4067C117.112 41.476 115.59 43.2347 113.711 44.5064C111.862 45.7402 109.701 46.3831 107.499 46.3543C106.203 46.3646 104.915 46.1355 103.696 45.6777C102.582 45.2658 101.533 44.6873 100.582 43.9609C100.144 43.625 99.729 43.2577 99.341 42.8618V43.18C99.352 43.5978 99.2814 44.0136 99.1334 44.4027C98.9853 44.7918 98.7629 45.1463 98.4792 45.445C98.1968 45.7441 97.8572 45.9793 97.4818 46.1358C97.1065 46.2924 96.7036 46.3667 96.2989 46.3543C95.8963 46.3676 95.4953 46.2963 95.1204 46.1446C94.7455 45.9928 94.4046 45.7639 94.1185 45.4718C93.8303 45.1709 93.6051 44.8122 93.4568 44.418C93.3086 44.0238 93.2405 43.6024 93.2567 43.18V10.4881C93.2454 10.0703 93.3159 9.65438 93.4639 9.26523C93.612 8.87608 93.8346 8.52164 94.1185 8.22304C94.7033 7.64009 95.4851 7.31419 96.2989 7.31419C97.1126 7.31419 97.8944 7.64009 98.4792 8.22304C98.7626 8.522 98.9849 8.8765 99.1329 9.26557C99.281 9.65463 99.3517 10.0703 99.341 10.4881V21.4095C99.8652 20.7643 100.46 20.1837 101.114 19.6793C101.971 19.0113 102.919 18.477 103.927 18.0935C105.006 17.6738 106.149 17.4617 107.302 17.4677C109.551 17.4348 111.761 18.0758 113.664 19.3129C115.56 20.5703 117.099 22.3236 118.123 24.3938C119.224 26.5439 119.773 29.0398 119.771 31.8816C119.77 34.7233 119.22 37.2317 118.123 39.4067Z" fill="white"/>
    <path d="M110.419 24.3378C109.268 23.5599 107.915 23.1607 106.539 23.1932C105.159 23.1652 103.803 23.5638 102.645 24.3378C101.523 25.1121 100.621 26.1812 100.034 27.4345C99.387 28.8209 99.0626 30.3436 99.0866 31.8817C99.0661 33.42 99.3866 34.9428 100.024 36.3342C100.6 37.6088 101.502 38.6972 102.635 39.4817C103.792 40.2569 105.149 40.6557 106.528 40.6263C107.905 40.6602 109.258 40.2609 110.409 39.4817C111.533 38.6926 112.43 37.6051 113.005 36.3342C113.643 34.9429 113.966 33.4204 113.949 31.8817C113.975 30.3437 113.655 28.8204 113.012 27.4318C112.427 26.1835 111.533 25.1162 110.419 24.3378Z" fill="white"/>
    <path d="M153.468 25.9528C152.796 24.3227 151.842 22.8321 150.652 21.5538C149.488 20.2995 148.103 19.2841 146.572 18.5614C145.038 17.8329 143.368 17.4596 141.679 17.4677C139.452 17.4672 137.265 18.0783 135.343 19.238C133.314 20.4522 131.641 22.2075 130.499 24.3189C129.267 26.5225 128.65 29.185 128.649 32.3067C128.608 34.8116 129.193 37.2852 130.349 39.4896C131.477 41.6043 133.165 43.3458 135.216 44.5117C137.327 45.7436 139.819 46.3596 142.694 46.3596C144.368 46.362 146.03 46.0718 147.61 45.5011C149.198 44.9289 150.432 44.2612 151.311 43.4982C152.258 42.7351 152.731 41.8848 152.731 40.947C152.728 40.6001 152.658 40.2572 152.526 39.9382C152.394 39.6192 152.201 39.3304 151.96 39.0885C151.718 38.8466 151.433 38.6563 151.12 38.5287C150.807 38.4011 150.472 38.3387 150.135 38.345C149.533 38.3606 148.943 38.5209 148.412 38.813C148.042 39.0216 147.627 39.273 147.169 39.5671C146.608 39.9086 146.002 40.1635 145.37 40.3239C144.39 40.5579 143.385 40.6621 142.38 40.6341C141.04 40.6382 139.722 40.2893 138.551 39.6206C137.548 39.0458 136.68 38.2516 136.007 37.2938C135.335 36.3361 134.874 35.238 134.658 34.077H151.389C152.168 34.0897 152.924 33.8124 153.52 33.2962C153.815 33.0507 154.054 32.7419 154.22 32.3912C154.386 32.0406 154.476 31.6567 154.483 31.2665C154.5 29.4425 154.155 27.6342 153.468 25.9528ZM148.017 28.8677H134.733C134.808 28.4619 134.91 28.0616 135.037 27.6697C135.342 26.6772 135.862 25.7692 136.558 25.0142C137.195 24.3604 137.978 23.8783 138.839 23.6103C139.76 23.3261 140.717 23.1855 141.679 23.1931C142.707 23.1887 143.723 23.4294 144.646 23.8964C145.551 24.3435 146.349 24.992 146.982 25.7951C147.595 26.5627 147.958 27.5094 148.02 28.5013L148.017 28.8677Z" fill="white"/>
    <path d="M180.736 23.8964C180.306 22.2061 179.364 20.7014 178.047 19.6016C176.745 18.532 174.842 17.9971 172.336 17.9971C171.25 17.9828 170.169 18.1638 169.143 18.532C168.202 18.8748 167.313 19.3567 166.506 19.9626C165.765 20.5185 165.086 21.1561 164.479 21.864C164.271 22.1047 164.09 22.34 163.921 22.57V21.6848C163.932 21.267 163.861 20.8513 163.713 20.4621C163.565 20.073 163.343 19.7186 163.059 19.4198C162.475 18.835 161.693 18.5078 160.879 18.5078C160.065 18.5078 159.282 18.835 158.699 19.4198C158.414 19.7182 158.192 20.0726 158.044 20.4618C157.895 20.851 157.825 21.267 157.837 21.6848V43.1799C157.825 43.5978 157.895 44.0138 158.044 44.4029C158.192 44.7921 158.414 45.1465 158.699 45.445C159.283 46.0279 160.065 46.3538 160.879 46.3538C161.693 46.3538 162.474 46.0279 163.059 45.445C163.343 45.1462 163.565 44.7917 163.713 44.4026C163.861 44.0135 163.932 43.5977 163.921 43.1799V29.8545C163.905 28.7745 164.158 27.7084 164.656 26.7578C165.153 25.8322 165.89 25.0667 166.784 24.5462C167.834 23.9621 169.015 23.6751 170.208 23.7145C171.592 23.7145 172.656 23.9918 173.4 24.5462C174.14 25.0882 174.687 25.865 174.958 26.7578C175.257 27.7605 175.403 28.8054 175.389 29.8545V43.1799C175.378 43.5977 175.448 44.0135 175.596 44.4026C175.744 44.7917 175.967 45.1462 176.25 45.445C176.835 46.0279 177.617 46.3538 178.431 46.3538C179.244 46.3538 180.026 46.0279 180.611 45.445C180.895 45.1462 181.117 44.7917 181.265 44.4026C181.413 44.0135 181.484 43.5977 181.473 43.1799V29.8545C181.493 27.843 181.245 25.8383 180.736 23.8964Z" fill="white"/>
</svg>
