<svg width="28" height="28" viewBox="0 0 28 28" fill="none" xmlns="http://www.w3.org/2000/svg">
    <path d="M4.36236 0.274665C1.9531 0.27466 0 2.22775 0 4.63701V23.4866C0 25.8959 1.95309 27.849 4.36234 27.849C10.6456 27.849 16.9288 27.849 23.212 27.849C25.6212 27.849 27.5743 25.8959 27.5743 23.4866V4.637C27.5743 2.22774 25.6212 0.274653 23.212 0.274658C16.9288 0.274672 10.6456 0.274678 4.36236 0.274665ZM13.7872 21.6014C9.62972 21.6014 6.24752 18.2192 6.24752 14.0618C6.24752 9.90437 9.62972 6.52217 13.7872 6.52217C17.9446 6.52217 21.3268 9.90437 21.3268 14.0618C21.3268 18.2192 17.9446 21.6014 13.7872 21.6014ZM21.5071 8.30027C20.2785 8.30027 19.2792 7.30098 19.2792 6.07239C19.2792 4.8438 20.2785 3.84431 21.5071 3.84431C22.7357 3.84431 23.7352 4.8438 23.7352 6.07239C23.7352 7.30098 22.7357 8.30027 21.5071 8.30027Z" fill="white"/>
    <path d="M13.7869 9.31543C11.1699 9.31543 9.04053 11.4446 9.04053 14.0618C9.04053 16.6789 11.1699 18.8082 13.7869 18.8082C16.4041 18.8082 18.5333 16.6789 18.5333 14.0618C18.5333 11.4446 16.4041 9.31543 13.7869 9.31543Z" fill="white"/>
</svg>
