<svg width="28" height="28" viewBox="0 0 28 28" fill="none" xmlns="http://www.w3.org/2000/svg">
    <path d="M25.7742 0.561768H2.66875C1.59326 0.561768 0.721497 1.43353 0.721497 2.50903V25.6145C0.721497 26.69 1.59326 27.5618 2.66875 27.5618H25.7742C26.8497 27.5618 27.7215 26.69 27.7215 25.6145V2.50903C27.7215 1.43353 26.8497 0.561768 25.7742 0.561768V0.561768ZM10.2986 20.97H7.01069V11.0784H10.2986V20.97ZM8.65472 9.72766H8.6333C7.53 9.72766 6.81644 8.96816 6.81644 8.01894C6.81644 7.0483 7.55183 6.30981 8.67656 6.30981C9.80128 6.30981 10.4934 7.0483 10.5148 8.01894C10.5148 8.96816 9.80128 9.72766 8.65472 9.72766ZM22.1539 20.97H18.8664V15.6782C18.8664 14.3483 18.3904 13.4413 17.2008 13.4413C16.2926 13.4413 15.7516 14.0531 15.5139 14.6437C15.427 14.855 15.4058 15.1504 15.4058 15.446V20.97H12.1181C12.1181 20.97 12.1611 12.0064 12.1181 11.0784H15.4058V12.4789C15.8427 11.8049 16.6244 10.8462 18.3688 10.8462C20.5319 10.8462 22.1539 12.2599 22.1539 15.2981V20.97Z" fill="white"/>
</svg>
