<svg fill="none" xmlns="http://www.w3.org/2000/svg">
    <g id="phone">
        <path d="M5.41406 12.5691C7.66406 16.9285 10.9688 20.2332 15.3281 22.4832L18.6328 19.1785C19.1016 18.7097 19.6172 18.5925 20.1797 18.8269C21.8672 19.3894 23.6484 19.6707 25.5234 19.6707C25.9453 19.6707 26.2969 19.8113 26.5781 20.0925C26.8594 20.3738 27 20.7253 27 21.1472V26.4207C27 26.8425 26.8594 27.1941 26.5781 27.4753C26.2969 27.7566 25.9453 27.8972 25.5234 27.8972C18.4922 27.8972 12.4688 25.4128 7.45312 20.4441C2.48438 15.4285 0 9.40503 0 2.37378C0 1.9519 0.140625 1.60034 0.421875 1.31909C0.703125 1.03784 1.05469 0.897217 1.47656 0.897217H6.75C7.17188 0.897217 7.52344 1.03784 7.80469 1.31909C8.08594 1.60034 8.22656 1.9519 8.22656 2.37378C8.22656 4.24878 8.50781 6.03003 9.07031 7.71753C9.25781 8.3269 9.14062 8.84253 8.71875 9.2644L5.41406 12.5691Z"
              fill="#080E42"/>
    </g>
    <g id="email">
        <path d="M27.5234 6.42065V3.39722L15.5 10.9207L3.47656 3.39722V6.42065L15.5 13.8738L27.5234 6.42065ZM27.5234 0.373779C28.3203 0.373779 29 0.678467 29.5625 1.28784C30.1719 1.89722 30.4766 2.60034 30.4766 3.39722V21.3972C30.4766 22.1941 30.1719 22.8972 29.5625 23.5066C29 24.116 28.3203 24.4207 27.5234 24.4207H3.47656C2.67969 24.4207 1.97656 24.116 1.36719 23.5066C0.804688 22.8972 0.523438 22.1941 0.523438 21.3972V3.39722C0.523438 2.60034 0.804688 1.89722 1.36719 1.28784C1.97656 0.678467 2.67969 0.373779 3.47656 0.373779H27.5234Z"
              fill="#080E42"/>
    </g>
    <g id="location">
        <path d="M7.82812 13.5691C8.57812 14.2722 9.46875 14.6238 10.5 14.6238C11.5312 14.6238 12.3984 14.2722 13.1016 13.5691C13.8516 12.8191 14.2266 11.9285 14.2266 10.8972C14.2266 9.86597 13.8516 8.99878 13.1016 8.29565C12.3984 7.54565 11.5312 7.17065 10.5 7.17065C9.46875 7.17065 8.57812 7.54565 7.82812 8.29565C7.125 8.99878 6.77344 9.86597 6.77344 10.8972C6.77344 11.9285 7.125 12.8191 7.82812 13.5691ZM3.04688 3.5144C5.10938 1.4519 7.59375 0.420654 10.5 0.420654C13.4062 0.420654 15.8672 1.4519 17.8828 3.5144C19.9453 5.53003 20.9766 7.99097 20.9766 10.8972C20.9766 12.3503 20.6016 14.0144 19.8516 15.8894C19.1484 17.7644 18.2812 19.5222 17.25 21.1628C16.2188 22.8035 15.1875 24.3503 14.1562 25.8035C13.1719 27.2097 12.3281 28.3347 11.625 29.1785L10.5 30.3738C10.2188 30.0457 9.84375 29.6238 9.375 29.1082C8.90625 28.5457 8.0625 27.4675 6.84375 25.8738C5.625 24.2332 4.54688 22.6628 3.60938 21.1628C2.71875 19.616 1.89844 17.8816 1.14844 15.9597C0.398438 14.0378 0.0234375 12.3503 0.0234375 10.8972C0.0234375 7.99097 1.03125 5.53003 3.04688 3.5144Z"
              fill="#080E42"/>
    </g>
    <g id="facebook">
        <path d="M43.0361 22C43.0361 10.3164 33.5669 0.847168 21.8833 0.847168C10.1997 0.847168 0.730469 10.3164 0.730469 22C0.730469 33.6836 10.1997 43.1528 21.8833 43.1528C22.0073 43.1528 22.1312 43.1528 22.2551 43.1446V26.685H17.7106V21.3886H22.2551V17.4885C22.2551 12.9687 25.0149 10.5064 29.0472 10.5064C30.9807 10.5064 32.6415 10.6469 33.1208 10.713V15.4393H30.3444C28.1548 15.4393 27.7251 16.4804 27.7251 18.0091V21.3803H32.972L32.2862 26.6768H27.7251V42.3348C36.5664 39.7981 43.0361 31.6593 43.0361 22Z" fill="#080E42"/>
    </g>
    <g id="instagram">
            <path d="M7.59944 0.397227C3.82442 0.39722 0.76416 3.45747 0.76416 7.23248V36.7675C0.76416 40.5425 3.82441 43.6028 7.59941 43.6028C17.4444 43.6028 27.2894 43.6028 37.1345 43.6028C40.9095 43.6028 43.9697 40.5425 43.9697 36.7675V7.23247C43.9697 3.45746 40.9095 0.397209 37.1344 0.397217C27.2894 0.397238 17.4444 0.397247 7.59944 0.397227ZM22.3669 33.8137C15.8527 33.8137 10.5532 28.5142 10.5532 22C10.5532 15.4858 15.8527 10.1863 22.3669 10.1863C28.8811 10.1863 34.1806 15.4858 34.1806 22C34.1806 28.5142 28.8811 33.8137 22.3669 33.8137ZM34.4631 12.9724C32.5381 12.9724 30.9723 11.4066 30.9723 9.48155C30.9723 7.5565 32.5381 5.99042 34.4631 5.99042C36.3882 5.99042 37.9543 7.5565 37.9543 9.48155C37.9543 11.4066 36.3882 12.9724 34.4631 12.9724Z" fill="#080E42"/>
            <path d="M22.3667 14.563C18.2661 14.563 14.9297 17.8992 14.9297 22.0001C14.9297 26.1007 18.2661 29.4371 22.3667 29.4371C26.4676 29.4371 29.8037 26.1007 29.8037 22.0001C29.8037 17.8992 26.4676 14.563 22.3667 14.563Z" fill="#080E42"/>
    </g>
    <g id="twitter">
            <path d="M47.9347 5.3536C46.178 6.12415 44.3063 6.6349 42.3548 6.88289C44.3624 5.68426 45.8946 3.80068 46.615 1.53036C44.7432 2.64633 42.6766 3.4346 40.4742 3.87449C38.6969 1.98206 36.1638 0.809998 33.4005 0.809998C28.0391 0.809998 23.7228 5.1617 23.7228 10.4965C23.7228 11.2641 23.7877 12.0022 23.9472 12.7048C15.8962 12.3122 8.77231 8.45352 3.98662 2.57548C3.15112 4.02506 2.66104 5.68426 2.66104 7.4704C2.66104 10.8242 4.38814 13.7972 6.96255 15.5184C5.40668 15.4889 3.88034 15.0372 2.58723 14.3257C2.58723 14.3552 2.58723 14.3936 2.58723 14.4319C2.58723 19.1379 5.944 23.0468 10.3459 23.9472C9.55763 24.1627 8.69851 24.2661 7.80691 24.2661C7.18693 24.2661 6.56104 24.2306 5.97353 24.1007C7.22826 27.9358 10.7887 30.7552 15.0223 30.8468C11.7276 33.4241 7.54415 34.977 3.01532 34.977C2.22114 34.977 1.45945 34.9416 0.697754 34.8442C4.98746 37.6105 10.0713 39.19 15.5538 39.19C33.3739 39.19 43.1165 24.4285 43.1165 11.6332C43.1165 11.2051 43.1017 10.7917 43.0811 10.3814C45.003 9.01741 46.6179 7.31393 47.9347 5.3536Z" fill="#080E42"/>
    </g>
    <g id="linkedin">
        <path d="M39.9172 0.847168H3.71371C2.02855 0.847168 0.662598 2.21312 0.662598 3.89828V40.1017C0.662598 41.7869 2.02855 43.1528 3.71371 43.1528H39.9172C41.6023 43.1528 42.9683 41.7869 42.9683 40.1017V3.89828C42.9683 2.21312 41.6023 0.847168 39.9172 0.847168V0.847168ZM15.6687 32.8243H10.517V17.3254H15.6687V32.8243ZM13.093 15.209H13.0594C11.3307 15.209 10.2126 14.019 10.2126 12.5316C10.2126 11.0108 11.3649 9.85365 13.1272 9.85365C14.8895 9.85365 15.974 11.0108 16.0076 12.5316C16.0076 14.019 14.8895 15.209 13.093 15.209ZM34.2445 32.8243H29.0935V24.5328C29.0935 22.449 28.3476 21.0278 26.4836 21.0278C25.0605 21.0278 24.2129 21.9865 23.8405 22.9118C23.7043 23.243 23.671 23.7058 23.671 24.169V32.8243H18.5197C18.5197 32.8243 18.5871 18.7794 18.5197 17.3254H23.671V19.5199C24.3556 18.4638 25.5805 16.9616 28.3137 16.9616C31.7031 16.9616 34.2445 19.1768 34.2445 23.9373V32.8243Z" fill="#080E42"/>
    </g>
    <g id="youtube">
            <path d="M49.2583 12.9131C49.3674 9.72344 48.6767 6.55763 47.2504 3.70964C46.2826 2.54104 44.9396 1.75242 43.4552 1.4812C37.3158 0.91857 31.1509 0.687969 24.987 0.790379C18.8456 0.683321 12.7029 0.906481 6.58498 1.45891C5.37543 1.68112 4.25608 2.25411 3.36352 3.10796C1.37769 4.95757 1.15704 8.12196 0.936389 10.7961C0.616256 15.6041 0.616256 20.4284 0.936389 25.2364C1.00022 26.7415 1.22211 28.2355 1.59833 29.6933C1.86438 30.8188 2.40264 31.8601 3.16493 32.724C4.06356 33.623 5.20898 34.2286 6.45259 34.4622C11.2096 35.0552 16.0027 35.3009 20.7947 35.1975C28.5174 35.309 35.2913 35.1975 43.3008 34.5736C44.5749 34.3544 45.7526 33.748 46.6767 32.8354C47.2944 32.2112 47.7559 31.4473 48.0227 30.6069C48.8118 28.1615 49.1993 25.6021 49.17 23.0302C49.2583 21.7823 49.2583 14.2502 49.2583 12.9131ZM20.0004 24.3673V10.5732L33.0627 17.5037C29.4 19.5539 24.5678 21.8715 20.0004 24.3673Z" fill="#080E42"/>
    </g>
</svg>
