<svg width="31" height="26" viewBox="0 0 31 26" fill="none" xmlns="http://www.w3.org/2000/svg">
    <path d="M30.7215 3.71423C29.6004 4.20601 28.4058 4.53198 27.1604 4.69025C28.4416 3.92526 29.4195 2.72315 29.8793 1.2742C28.6847 1.98642 27.3658 2.48951 25.9601 2.77025C24.8259 1.56248 23.2092 0.814453 21.4456 0.814453C18.0239 0.814453 15.2692 3.59176 15.2692 6.99651C15.2692 7.4864 15.3107 7.95745 15.4124 8.40589C10.2742 8.15529 5.72762 5.69264 2.67334 1.9412C2.14011 2.86634 1.82733 3.92526 1.82733 5.0652C1.82733 7.20565 2.92959 9.10304 4.57261 10.2015C3.57964 10.1827 2.60551 9.8944 1.78023 9.44031C1.78023 9.45915 1.78023 9.48365 1.78023 9.50814C1.78023 12.5116 3.92256 15.0062 6.7319 15.5809C6.22882 15.7185 5.68052 15.7844 5.11149 15.7844C4.71581 15.7844 4.31636 15.7618 3.9414 15.6789C4.74219 18.1265 7.01453 19.9259 9.71647 19.9843C7.61371 21.6292 4.9438 22.6203 2.05344 22.6203C1.54659 22.6203 1.06046 22.5977 0.574341 22.5355C3.31208 24.301 6.55667 25.309 10.0556 25.309C21.4286 25.309 27.6465 15.888 27.6465 7.72192C27.6465 7.44871 27.6371 7.18493 27.6239 6.92302C28.8505 6.05252 29.8812 4.96534 30.7215 3.71423Z" fill="white"/>
</svg>
