<svg width="32" height="23" viewBox="0 0 32 23" fill="none" xmlns="http://www.w3.org/2000/svg">
    <path d="M31.7144 7.81526C31.784 5.77957 31.3432 3.75911 30.4329 1.94149C29.8153 1.19568 28.9581 0.69237 28.0108 0.519272C24.0925 0.160197 20.158 0.0130245 16.2241 0.0783838C12.3046 0.010058 8.38426 0.152482 4.47973 0.50505C3.70778 0.646869 2.9934 1.01256 2.42375 1.55749C1.15637 2.73793 1.01555 4.75749 0.874731 6.46415C0.670418 9.53268 0.670418 12.6116 0.874731 15.6801C0.915471 16.6407 1.05708 17.5942 1.29719 18.5246C1.46699 19.2429 1.81051 19.9075 2.29702 20.4588C2.87053 21.0326 3.60155 21.4191 4.39524 21.5681C7.4312 21.9466 10.4902 22.1035 13.5486 22.0375C18.4773 22.1086 22.8004 22.0375 27.9122 21.6392C28.7254 21.4994 29.477 21.1124 30.0668 20.5299C30.461 20.1316 30.7555 19.644 30.9258 19.1077C31.4294 17.547 31.6767 15.9135 31.658 14.2721C31.7144 13.4757 31.7144 8.66859 31.7144 7.81526ZM13.0416 15.1255V6.32193L21.3782 10.745C19.0405 12.0535 15.9566 13.5326 13.0416 15.1255Z" fill="white"/>
</svg>
